<?xml version="1.0" encoding="UTF-8"?>
<svg width="249px" height="268px" viewBox="0 0 249 268" version="1.1" xmlns="http://www.w3.org/2000/svg" xmlns:xlink="http://www.w3.org/1999/xlink">
    <!-- Generator: Sketch 61.2 (89653) - https://sketch.com -->
    <title>binoculars@3x</title>
    <desc>Created with Sketch.</desc>
    <g id="Page-1" stroke="none" stroke-width="1" fill="none" fill-rule="evenodd">
        <g id="binoculars">
            <g>
                <g id="speach-bubble" fill="#6098E0">
                    <circle id="Oval" cx="124.5" cy="124.5" r="124.5"></circle>
                    <polygon id="Triangle" transform="translate(124.500000, 255.500000) scale(1, -1) translate(-124.500000, -255.500000) " points="124.5 243 139 268 110 268"></polygon>
                </g>
                <g transform="translate(69.000000, 61.000000)" fill="#FCFCFC">
                    <path d="M18.6059581,0 L43.4016831,0 C45.0585373,-3.04359188e-16 46.4016831,1.34314575 46.4016831,3 C46.4016831,3.18098314 46.3853057,3.36159503 46.3527513,3.53962623 L44.1241056,15.7274799 L44.1241056,15.7274799 L44.1241056,19.4486829 C44.1241056,19.9833368 43.7035508,20.4234126 43.1694468,20.4476545 L31,21 L31,21 L18.864358,20.4477614 C18.3303022,20.4234589 17.9098165,19.9834037 17.9098165,19.4487952 L17.9098165,15.7274799 L17.9098165,15.7274799 L15.6560221,3.54578181 C15.3545951,1.91657716 16.4309716,0.351491001 18.0601763,0.0500640316 C18.2401949,0.0167579249 18.4228843,2.25407615e-15 18.6059581,0 Z" id="Rectangle"></path>
                    <path d="M68.6059581,0 L93.4016831,0 C95.0585373,-3.04359188e-16 96.4016831,1.34314575 96.4016831,3 C96.4016831,3.18098314 96.3853057,3.36159503 96.3527513,3.53962623 L94.1241056,15.7274799 L94.1241056,15.7274799 L94.1241056,19.4486829 C94.1241056,19.9833368 93.7035508,20.4234126 93.1694468,20.4476545 L81,21 L81,21 L68.864358,20.4477614 C68.3303022,20.4234589 67.9098165,19.9834037 67.9098165,19.4487952 L67.9098165,15.7274799 L67.9098165,15.7274799 L65.6560221,3.54578181 C65.3545951,1.91657716 66.4309716,0.351491001 68.0601763,0.0500640316 C68.2401949,0.0167579249 68.4228843,2.25407615e-15 68.6059581,0 Z" id="Rectangle-Copy-72" transform="translate(81.000000, 10.500000) scale(-1, 1) translate(-81.000000, -10.500000) "></path>
                    <path d="M14.5502742,22.0772586 C21.2412488,22.3689206 26.1958107,22.5147516 29.41396,22.5147516 C32.509067,22.5147516 36.9828539,22.3798588 42.8353207,22.1100732 C43.9387267,22.0591923 44.8744485,22.9124464 44.9253131,24.0158531 C44.9297768,24.1126842 44.927195,24.2097117 44.9175881,24.3061684 L43.4238221,39.3041257 L43.4238221,39.3041257 L44.89396,50.884185 L45.1309653,77.9083685 C45.1401674,78.9576458 44.3368807,79.8356254 43.2909211,79.9195073 C34.308832,80.6398358 27.7609509,81 23.6472778,81 C19.587765,81 13.1577196,80.6492571 4.3571414,79.9477714 C3.25604872,79.860029 2.43458746,78.8962695 2.52235435,77.7951788 C2.52781297,77.726697 2.53679639,77.6585419 2.54926889,77.5909847 L12.4964134,23.7122662 C12.6775028,22.7313364 13.5537154,22.0338183 14.5502742,22.0772586 Z" id="Rectangle"></path>
                    <path d="M78.4029965,22.0772586 C85.093971,22.3689206 90.0485329,22.5147516 93.2666822,22.5147516 C96.3617892,22.5147516 100.835576,22.3798588 106.688043,22.1100732 C107.791449,22.0591923 108.727171,22.9124464 108.778035,24.0158531 C108.782499,24.1126842 108.779917,24.2097117 108.77031,24.3061684 L107.276544,39.3041257 L107.276544,39.3041257 L108.746682,50.884185 L108.983688,77.9083685 C108.99289,78.9576458 108.189603,79.8356254 107.143643,79.9195073 C98.1615542,80.6398358 91.6136731,81 87.5,81 C83.4404873,81 77.0104418,80.6492571 68.2098636,79.9477714 C67.108771,79.860029 66.2873097,78.8962695 66.3750766,77.7951788 C66.3805352,77.726697 66.3895186,77.6585419 66.4019911,77.5909847 L76.3491356,23.7122662 C76.530225,22.7313364 77.4064376,22.0338183 78.4029965,22.0772586 Z" id="Rectangle-Copy-73" transform="translate(87.500000, 51.500000) scale(-1, 1) translate(-87.500000, -51.500000) "></path>
                    <rect id="Rectangle" x="46" y="22" width="19" height="7" rx="1"></rect>
                    <rect id="Rectangle-Copy-71" x="46" y="56" width="19" height="7" rx="1"></rect>
                    <path d="M48.0220387,30 L63.0691586,30 C63.4841648,30.0000069 63.856041,30.2563385 64.0037076,30.6441848 C64.6569335,32.3598832 65.15119,34.1511313 65.486477,36.0179293 C65.8639607,38.1196683 66.0333321,40.2803586 65.9945912,42.5 C65.996162,45.2917751 65.8267906,47.635055 65.486477,49.5298399 C65.1850769,51.2079637 64.6964674,52.830084 64.0206485,54.3962009 C63.8625189,54.7626657 63.5016142,55 63.1024883,55 L47.9915375,55 C47.5716257,54.9999775 47.1964442,54.7376365 47.0523121,54.3432359 C46.5956138,53.0935337 46.2025167,51.7485435 45.8730206,50.3082653 C45.2910069,47.7641939 45,45.1614387 45,42.5 C45,40.2733182 45.2036979,38.0877136 45.6110937,35.9431861 C45.8576358,34.6453914 46.3447194,32.8932576 47.0723447,30.6867849 C47.2075461,30.2769107 47.5904413,30 48.0220387,30 Z" id="Rectangle"></path>
                    <path d="M3.17267323,82.0609402 C12.6753139,82.6439338 19.7441511,82.9354306 24.3791848,82.9354306 C28.9961419,82.9354306 35.6530024,82.6462031 44.3497665,82.067748 C44.9008384,82.0310842 45.3772849,82.4481028 45.4139388,82.9991754 C45.4141731,83.0026983 45.4143888,83.0062224 45.4145858,83.0097475 L46.8943964,109.490648 C46.9537292,110.552506 46.171663,111.475091 45.1144225,111.590435 C35.2412834,112.667586 27.6749271,113.12739 22.4153537,112.969847 C17.2209916,112.814257 10.4011556,112.345712 1.95584565,111.564212 C0.869911288,111.463727 0.0646731082,110.511784 0.145647812,109.42422 L2.11419601,82.9848461 C2.15479434,82.439139 2.62648495,82.0274312 3.17267323,82.0609402 Z" id="Rectangle"></path>
                    <path d="M67.1726732,82.0609402 C76.6753139,82.6439338 83.7441511,82.9354306 88.3791848,82.9354306 C92.9961419,82.9354306 99.6530024,82.6462031 108.349767,82.067748 C108.900838,82.0310842 109.377285,82.4481028 109.413939,82.9991754 C109.414173,83.0026983 109.414389,83.0062224 109.414586,83.0097475 L110.894396,109.490648 C110.953729,110.552506 110.171663,111.475091 109.114422,111.590435 C99.2412834,112.667586 91.6749271,113.12739 86.4153537,112.969847 C81.2209916,112.814257 74.4011556,112.345712 65.9558456,111.564212 C64.8699113,111.463727 64.0646731,110.511784 64.1456478,109.42422 L66.114196,82.9848461 C66.1547943,82.439139 66.626485,82.0274312 67.1726732,82.0609402 Z" id="Rectangle-Copy-74" transform="translate(87.500000, 97.500000) scale(-1, 1) translate(-87.500000, -97.500000) "></path>
                </g>
            </g>
        </g>
    </g>
</svg>