<?xml version="1.0" encoding="UTF-8"?>
<svg width="168px" height="258px" viewBox="0 0 168 258" version="1.1" xmlns="http://www.w3.org/2000/svg" xmlns:xlink="http://www.w3.org/1999/xlink">
    <!-- Generator: Sketch 61.2 (89653) - https://sketch.com -->
    <title>finger@3x</title>
    <desc>Created with Sketch.</desc>
    <g id="Page-1" stroke="none" stroke-width="1" fill="none" fill-rule="evenodd">
        <g id="finger" transform="translate(6.000000, 6.000000)" stroke="#172940">
            <g transform="translate(0.000000, 0.000000)">
                <path d="M36.2159579,251.747973 C36.2159579,219.953963 36.2159579,204.056958 36.2159579,204.056958 C36.2159579,204.056958 19.4042342,189.284762 10.7762799,174.399179 C4.36041631,163.330057 -0.618580064,153.670434 0.062401087,138.760116 C0.297192875,133.619268 0.062401087,123.588847 3.24909671,113.882912 C6.66732893,103.471769 15.1268903,95.3921471 28.6277808,89.6440455 C28.210599,61.3878867 28.3027788,42.7859607 28.9043202,33.8382675 C29.614585,23.2733552 30.6052671,14.671691 32.3874779,11.2043819 C34.1696887,7.73707268 40.5044656,0 51.4561095,0 C62.60798,0 68.8618486,5.18057371 70.7171372,11.2043819 C73.2762771,19.5134762 73.2762771,45.6600307 70.7171372,89.6440455 L73.3544025,66.7318039 C75.1928616,60.1890933 78.531514,56.9177379 83.3703595,56.9177379 C91.9173738,56.9177379 92.4872699,62.7681135 93.8091924,66.7318039 C94.690474,69.3742642 95.7017286,91.0913944 96.8429561,131.883195 C95.7389517,95.1670453 97.1218812,73.9483982 100.991745,68.2272532 C103.527116,64.4790007 105.455116,61.463267 110.641738,61.463267 C115.82836,61.463267 119.460444,64.4790007 122.0579,69.5858445 C127.25863,79.8109674 124.513785,132.449668 126.282346,135.453478 C128.050907,138.457287 126.705638,92.0101901 130.041622,83.1457838 C132.213346,77.3750587 137.331063,76.2089767 140.731537,76.2089767 C144.132011,76.2089767 150.212553,79.7693933 152.13771,84.4524289 C156.282579,94.5350214 156.282579,130.245294 155.92778,146.176425 C155.57298,162.107557 147.333691,176.625852 140.731537,183.865345 C133.01928,192.322105 125.929906,199.052643 119.463417,204.056958 L119.463417,251.747973" id="Path-4" stroke-width="11"></path>
                <path d="M156.07022,132.800545 C151.126995,139.014768 146.29387,142.121879 141.570845,142.121879 C136.847821,142.121879 131.836259,139.014768 126.536158,132.800545 L118.671092,140.672926 C114.916111,142.361495 111.859154,143.205779 109.500221,143.205779 C108.02776,143.205779 104.619969,142.320437 101.457953,139.35376 C100.188855,138.163063 98.3425395,135.640054 95.9190056,131.784733 C95.0131645,135.430017 93.8692526,137.637064 92.4872699,138.405874 C90.4142958,139.559089 88.2318439,143.205779 80.5195779,143.205779 C72.8073118,143.205779 70.4241675,137.251339 69.207855,132.800545 C67.3149658,125.873986 67.7101183,115.24722 65.772914,114.031275 M71.767653,183.248234 C67.3376423,181.004474 64.5275562,178.537698 63.3373946,175.847908 C61.5521522,171.813223 66.4671492,168.9675 63.3373946,164.195674 C60.2076399,159.423847 55.9635148,156.133295 52.711413,154.78375 C49.1497788,153.305757 41.3196673,154.78375 37.7461518,151.464192 C35.3638082,149.251154 34.5206089,143.029938 35.2165539,132.800545 C35.2165539,124.951806 37.0167608,120.185643 40.6171748,118.502055 C41.0803794,118.285456 52.4271956,117.948639 57.6535093,116.492455 C60.2371299,115.772593 62.4249546,114.985596 64.2169835,114.131463 C65.0532267,113.732885 65.8032819,113.319689 66.4671492,112.891872 C69.8525111,111.305315 72.5597775,109.891781 74.5889485,108.65127 C80.2242794,105.206171 86.1469636,103.073054 86.1469636,97.3310078 C86.1469636,93.3251616 83.5163953,90.7704773 78.2552586,89.6669549 L66.4671492,88 L54.271795,88 L28.9043202,88" id="Shape" stroke-width="11"></path>
            </g>
        </g>
    </g>
</svg>