<?xml version="1.0" encoding="UTF-8"?>
<svg width="1357px" height="162px" viewBox="0 0 1357 162" version="1.1" xmlns="http://www.w3.org/2000/svg" xmlns:xlink="http://www.w3.org/1999/xlink">
    <!-- Generator: Sketch 61.2 (89653) - https://sketch.com -->
    <title>logo-white@3x</title>
    <desc>Created with Sketch.</desc>
    <g id="Page-1" stroke="none" stroke-width="1" fill="none" fill-rule="evenodd">
        <g id="logo-white" transform="translate(0.362665, 0.616144)" fill="#FCFCFC">
            <polygon id="Path-2" points="8.13680211 154.252178 8.13680211 11.2008208 0 7.3388759 0 0.833988396 101.045116 0.833988396 101.045116 11.2008208 27.5406462 11.2008208 27.5406462 67.3007316 84.396551 67.3007316 84.396551 77.5430831 27.5406462 77.5430831 27.5406462 145.485381 101.045116 145.485381 101.045116 154.252178"></polygon>
            <polygon id="Path-3" points="126.452888 154.252178 126.452888 45.2697501 120.231991 42.7570693 120.231991 36.6941862 141.036859 36.6941862 172.733569 125.441772 205.42297 36.6941862 220.169225 36.6941862 220.169225 154.252178 205.42297 154.252178 205.42297 67.4505089 172.733569 154.252178 167.497928 154.252178 135.60268 67.4505089 135.60268 154.252178"></polygon>
            <path d="M287.953413,36.6941862 C295.702694,36.6941862 304.300973,37.5725444 310.042761,42.7506665 C315.78455,47.9287886 321.74747,52.637779 321.74747,65.5279377 C321.74747,78.4180964 316.209727,82.7253432 310.042761,88.1121327 C303.875796,93.4989222 298.08403,95.473182 291.813507,95.473182 L266.812999,95.473182 L266.812999,95.473182 L266.812999,154.252178 L251.724649,154.252178 L251.724649,45.4751159 L244.685751,42.7506665 L244.685751,36.6941862 L287.953413,36.6941862 L287.953413,36.6941862 Z M295.326064,47.7766132 C291.671495,45.3641805 282.22697,44.4151651 266.992489,44.9295672 L266.992489,44.9295672 L266.992489,86.5260475 C280.723545,87.1970044 289.38094,86.703311 292.964676,85.0449673 C298.340278,82.5574518 305.481268,75.8668527 305.481268,65.7278073 C305.481268,55.588762 300.807916,51.3952623 295.326064,47.7766132 Z" id="Combined-Shape"></path>
            <polygon id="Path-6" points="347.464578 154.252178 347.464578 45.3371104 340.538672 42.841301 340.538672 36.6941862 362.620913 36.6941862 362.620913 146.33401 420.174279 146.33401 420.174279 155.17031"></polygon>
            <polygon id="Path-7" points="580.303977 155.41157 580.303977 99.7042183 548.947101 46.7299117 540.553213 42.3838562 540.553213 37.3809017 560.428595 37.3809017 591.688095 88.306123 621.766506 37.3809017 630.96456 37.3809017 596.515885 97.8032933 596.515885 155.41157"></polygon>
            <polygon id="Path-8" points="652.400284 155.41157 652.400284 45.5334472 646.086232 42.2003057 646.086232 37.3809017 723.633721 37.3809017 723.633721 45.5334472 668.485464 45.5334472 668.485464 87.6631631 712.40615 87.6631631 712.40615 96.3962361 668.485464 96.3962361 668.485464 146.68502 723.633721 146.68502 723.633721 155.41157"></polygon>
            <polygon id="Path-8-Copy" points="750.951387 155.414525 750.951387 45.5364016 744.637335 42.2032601 744.637335 37.3838562 822.184824 37.3838562 822.184824 45.5364016 767.036567 45.5364016 767.036567 87.6661175 810.957253 87.6661175 810.957253 96.3991905 767.036567 96.3991905 767.036567 146.687975 822.184824 146.687975 822.184824 155.414525"></polygon>
            <polygon id="Path-9" points="846.670509 155.43406 846.670509 146.829808 911.191452 45.3821912 854.823635 45.3821912 852.786996 51.1669029 846.670509 51.1669029 846.670509 37.5564605 934.404757 37.5564605 864.624687 146.829808 928.637565 146.829808 928.637565 155.43406"></polygon>
            <polygon id="Path-10" points="958.838617 155.43406 958.838617 9.87713203 949.85449 6.38236077 949.85449 0 977.945529 0 1050.28977 114.497791 1050.28977 0 1059.33106 0 1059.33106 155.43406 1054.81814 155.43406 967.960248 19.8655035 967.960248 155.43406"></polygon>
            <polygon id="Path-11" points="1246.38629 153.258543 1203.92374 45.124573 1198.01415 42.2230786 1198.01415 36.8974921 1215.82327 36.8974921 1253.55815 135.220765 1274.49278 81.6914369 1256.97876 36.8974921 1274.49278 36.8974921 1311.18325 135.220765 1348.38201 36.8974921 1356.31709 36.8974921 1311.18325 153.258543 1303.53245 153.258543 1277.16562 92.5774485 1253.55815 153.258543"></polygon>
            <g id="Group-16" transform="translate(1085.637335, 37.383856)">
                <path d="M53.5,0 C83.0472341,0 107,27.7583455 107,62 C107,96.2416545 83.0472341,124 53.5,124 C23.9527659,124 0,96.2416545 0,62 C0,27.7583455 23.9527659,0 53.5,0 Z M53.5,8 C32.2370371,8 15,31.9527659 15,61.5 C15,91.0472341 32.2370371,115 53.5,115 C74.7629629,115 92,91.0472341 92,61.5 C92,31.9527659 74.7629629,8 53.5,8 Z" id="Combined-Shape"></path>
            </g>
            <g id="Group-16-Copy" transform="translate(429.637335, 33.383856)">
                <path d="M53.5,0 C83.0472341,0 107,27.7583455 107,62 C107,96.2416545 83.0472341,124 53.5,124 C23.9527659,124 0,96.2416545 0,62 C0,27.7583455 23.9527659,0 53.5,0 Z M53.5,8 C32.2370371,8 15,31.9527659 15,61.5 C15,91.0472341 32.2370371,115 53.5,115 C74.7629629,115 92,91.0472341 92,61.5 C92,31.9527659 74.7629629,8 53.5,8 Z" id="Combined-Shape"></path>
            </g>
        </g>
    </g>
</svg>