<?xml version="1.0" encoding="UTF-8"?>
<svg width="224px" height="236px" viewBox="0 0 224 236" version="1.1" xmlns="http://www.w3.org/2000/svg" xmlns:xlink="http://www.w3.org/1999/xlink">
    <!-- Generator: Sketch 61.2 (89653) - https://sketch.com -->
    <title>podium@3x</title>
    <desc>Created with Sketch.</desc>
    <g id="Page-1" stroke="none" stroke-width="1" fill="none" fill-rule="evenodd">
        <g id="podium" transform="translate(0.000000, 1.000000)">
            <g>
                <rect id="Rectangle" stroke="#172940" stroke-width="2" fill="#172940" x="1" y="168" width="75" height="66"></rect>
                <rect id="Rectangle" stroke="#172940" stroke-width="2" fill="#172940" x="78" y="149" width="70" height="85"></rect>
                <rect id="Rectangle" stroke="#172940" stroke-width="2" fill="#172940" x="150" y="184" width="73" height="50"></rect>
                <path d="M28.5237527,164.173072 C22.7579684,164.173072 22,161.648532 22,160.155657 C22,159.160406 22,141.108521 22,106 L54.6046186,106 C54.690032,116.707379 54.690032,124.231028 54.6046186,128.570948 C54.200328,149.113241 54.317263,159.92998 54.317263,160.462154 C54.317263,161.513387 54.1219012,164.173072 47.9267247,164.173072 C41.7315481,164.173072 41.4549699,161.568802 41.4549118,160.462154 C41.4548538,159.355506 41.4549699,128.644863 41.4549118,128.570948 C41.451816,124.627754 41.4549118,121.67682 41.4549118,120.390982 C41.4549118,119.105143 41.4549118,117.189996 38.4557954,117.189996 C35.9430528,117.189996 35.631759,119.666817 35.631759,120.390982 C35.631759,139.51244 35.631759,159.10663 35.631759,160.155657 C35.631759,161.204683 34.289537,164.173072 28.5237527,164.173072 Z" id="Path-7" stroke="#172940" stroke-width="2" fill="#172940"></path>
                <path d="M103.523753,145.173072 C97.7579684,145.173072 97,142.648532 97,141.155657 C97,140.160406 97,122.108521 97,87 L129.604619,87 C129.690032,97.7073792 129.690032,105.231028 129.604619,109.570948 C129.200328,130.113241 129.317263,140.92998 129.317263,141.462154 C129.317263,142.513387 129.121901,145.173072 122.926725,145.173072 C116.731548,145.173072 116.45497,142.568802 116.454912,141.462154 C116.454854,140.355506 116.45497,109.644863 116.454912,109.570948 C116.451816,105.627754 116.454912,102.67682 116.454912,101.390982 C116.454912,100.105143 116.454912,98.1899963 113.455795,98.1899963 C110.943053,98.1899963 110.631759,100.666817 110.631759,101.390982 C110.631759,120.51244 110.631759,140.10663 110.631759,141.155657 C110.631759,142.204683 109.289537,145.173072 103.523753,145.173072 Z" id="Path-7-Copy" stroke="#172940" stroke-width="2" fill="#172940"></path>
                <path d="M177.523753,180.173072 C171.757968,180.173072 171,177.648532 171,176.155657 C171,175.160406 171,157.108521 171,122 L203.604619,122 C203.690032,132.707379 203.690032,140.231028 203.604619,144.570948 C203.200328,165.113241 203.317263,175.92998 203.317263,176.462154 C203.317263,177.513387 203.121901,180.173072 196.926725,180.173072 C190.731548,180.173072 190.45497,177.568802 190.454912,176.462154 C190.454854,175.355506 190.45497,144.644863 190.454912,144.570948 C190.451816,140.627754 190.454912,137.67682 190.454912,136.390982 C190.454912,135.105143 190.454912,133.189996 187.455795,133.189996 C184.943053,133.189996 184.631759,135.666817 184.631759,136.390982 C184.631759,155.51244 184.631759,175.10663 184.631759,176.155657 C184.631759,177.204683 183.289537,180.173072 177.523753,180.173072 Z" id="Path-7-Copy-2" stroke="#172940" stroke-width="2" fill="#172940"></path>
                <path d="M170.977799,118.443753 C171.254123,107.495215 171.254123,101.560171 170.977799,100.638622 C170.563313,99.2562973 170.563313,97.4622543 168.060815,97.4622543 C165.558316,97.4622543 165.213459,99.6902656 164.551153,104.237769 C163.888847,108.785272 164.871747,123.826688 164.551153,126.068119 C164.230559,128.30955 163.141468,131.02224 159.708495,131.02224 C156.275522,131.02224 154.687985,127.83687 154.304797,126.068119 C153.921609,124.299369 153.666596,115.321396 155.029218,104.426238 C156.391841,93.531079 159.018558,87.8427089 161.784855,83.9159505 C164.551153,79.989192 167.845665,78.315411 170.977799,77.4532971 C173.065888,76.8785546 191.284021,77.013867 198.152558,77.013867 C200.719309,77.013867 202.132289,77.013867 202.391498,77.013867 C202.650707,77.013867 194.872093,87.7353279 179.055658,109.17825" id="Path" stroke="#172940" stroke-width="2" fill="#172940"></path>
                <line x1="170.984632" y1="118.013867" x2="202.384632" y2="118.013867" id="Line-2" stroke="#172940" stroke-width="2" fill="#172940" stroke-linecap="square"></line>
                <path d="M219.028443,118.453207 C219.304264,107.384772 219.304264,101.384733 219.028443,100.453092 C218.614711,99.0556302 218.614711,97.2419407 216.116762,97.2419407 C213.618814,97.2419407 213.274584,99.4943508 212.613482,104.091653 C211.952381,108.688956 212.933494,123.89509 212.613482,126.161066 C212.293471,128.427043 211.20636,131.16944 207.77963,131.16944 C204.352899,131.16944 202.768249,127.949186 202.385757,126.161066 C202.003266,124.372946 201.748716,115.296657 203.108861,104.282186 C204.469006,93.2677154 207.090947,87.5170524 209.852215,83.5472923 C212.613482,79.5775323 216.104168,77.7962826 219.338426,77" id="Path" stroke="#172940" stroke-width="2" fill="#172940" transform="translate(210.709970, 104.084720) scale(-1, 1) translate(-210.709970, -104.084720) "></path>
                <polygon id="Triangle" fill="#172940" points="203 77.6116366 203 96.0723265 203 117.611637 171 117.611637"></polygon>
                <path d="M21.9777988,102.443753 C22.2541226,91.4952149 22.2541226,85.560171 21.9777988,84.6386215 C21.5633133,83.2562973 21.5633133,81.4622543 19.0608145,81.4622543 C16.5583158,81.4622543 16.2134586,83.6902656 15.551153,88.2377687 C14.8888474,92.7852718 15.8717472,107.826688 15.551153,110.068119 C15.2305588,112.30955 14.1414676,115.02224 10.708495,115.02224 C7.27552245,115.02224 5.6879853,111.83687 5.30479738,110.068119 C4.92160946,108.299369 4.66659566,99.3213965 6.02921837,88.4262377 C7.39184108,77.531079 10.0185576,71.8427089 12.7848553,67.9159505 C15.551153,63.989192 18.8456654,62.315411 21.9777988,61.4532971 C24.0658878,60.8785546 42.2840212,61.013867 49.1525576,61.013867 C51.7193087,61.013867 53.1322887,61.013867 53.3914976,61.013867 C53.6507065,61.013867 45.8720934,71.7353279 30.0556583,93.1782498" id="Path" stroke="#172940" stroke-width="2" fill="#172940"></path>
                <line x1="21.9846316" y1="102.013867" x2="53.3846316" y2="102.013867" id="Line-2" stroke="#172940" stroke-width="2" fill="#172940" stroke-linecap="square"></line>
                <path d="M70.0284429,102.453207 C70.3042642,91.3847716 70.3042642,85.3847334 70.0284429,84.4530921 C69.614711,83.0556302 69.614711,81.2419407 67.1167625,81.2419407 C64.6188139,81.2419407 64.2745837,83.4943508 63.6134824,88.0916533 C62.9523811,92.6889557 63.9334937,107.89509 63.6134824,110.161066 C63.2934711,112.427043 62.2063602,115.16944 58.7796297,115.16944 C55.3528991,115.16944 53.7682485,111.949186 53.3857574,110.161066 C53.0032662,108.372946 52.7487161,99.296657 54.1088612,88.2821862 C55.4690063,77.2677154 58.0909468,71.5170524 60.8522146,67.5472923 C63.6134824,63.5775323 67.1041681,61.7962826 70.3384264,61" id="Path" stroke="#172940" stroke-width="2" fill="#172940" transform="translate(61.709970, 88.084720) scale(-1, 1) translate(-61.709970, -88.084720) "></path>
                <polygon id="Triangle" fill="#172940" points="54 61.6116366 54 80.0723265 54 101.611637 22 101.611637"></polygon>
                <circle id="Oval" stroke="#172940" stroke-width="2" fill="#172940" cx="38.5" cy="40.5" r="15.5"></circle>
                <circle id="Oval-Copy-6" stroke="#172940" stroke-width="2" fill="#172940" cx="186.5" cy="56.5" r="15.5"></circle>
                <circle id="Oval-Copy-7" stroke="#172940" stroke-width="2" fill="#172940" cx="114.5" cy="21.5" r="15.5"></circle>
                <path d="M121.92229,27.5 C119.632784,27.5 119.182485,27.5 115.5,27.5 C111.55357,27.5 111.17744,27.5 108.07771,27.5 C110.191333,29.8437958 112.493807,31 115,31 C117.506193,31 119.808667,29.8437958 121.92229,27.5 Z" id="Oval" stroke="#172940" fill="#FFFFFF"></path>
                <path d="M95.6875602,82.689234 L95.6875602,46.702716 C74.0371857,24.128268 62.5474452,11.8330167 61.2183388,9.81696212 C59.2246793,6.79288022 57.7105727,3.76345167 61.2183388,1 C64.6189403,-1.67902632 67.7401008,2.41854873 69.2756392,4 C69.3152194,4.04076362 70.6045525,5.33420017 73.1436385,7.88030965 C92.3665843,28.718462 102.819449,39.7065644 104.502232,40.844617 C107.026407,42.5516959 122.443081,42.5516959 124.968581,40.844617 C126.652248,39.7065644 138.067369,27.3275651 159.213943,3.70761902 C162.718987,0.67272686 165.395586,0.145576436 167.24374,2.12616774 C169.091893,4.10675905 168.668843,6.67035718 165.974589,9.81696212 L131.516422,46.702716 L131.516422,82.689234 L95.6875602,82.689234 Z" id="Path-9" stroke="#172940" stroke-width="2" fill="#172940"></path>
                <g id="Group-3-Copy" transform="translate(154.000000, 77.000000)"></g>
                <g id="Group-3-Copy-2" transform="translate(5.000000, 61.000000)"></g>
            </g>
        </g>
    </g>
</svg>