<?xml version="1.0" encoding="UTF-8"?>
<svg width="238px" height="241px" viewBox="0 0 238 241" version="1.1" xmlns="http://www.w3.org/2000/svg" xmlns:xlink="http://www.w3.org/1999/xlink">
    <!-- Generator: Sketch 61.2 (89653) - https://sketch.com -->
    <title>serving@3x</title>
    <desc>Created with Sketch.</desc>
    <g id="Page-1" stroke="none" stroke-width="1" fill="none" fill-rule="evenodd">
        <g id="serving" transform="translate(3.750000, 0.000000)" stroke="#172940">
            <g>
                <circle id="Oval" stroke-width="7" cx="114.25" cy="24" r="20.5"></circle>
                <path d="M213.209663,140.5 C211.916615,77.069874 179.526853,46 114.75,46 C49.9731467,46 17.583385,77.069874 16.2903368,140.5 L213.209663,140.5 Z" id="Oval" stroke-width="8"></path>
                <line x1="0.5" y1="153.75" x2="230" y2="154.25" id="Line-3" stroke-width="8" stroke-linecap="round"></line>
                <path d="M71.7018186,235.698796 C69.538326,235.698796 8.41503365,237.707786 8.41503365,235.698796 C8.41503365,234.359469 18.9628311,220.12272 40.0584261,192.988549 C46.2297954,186.215976 51.717798,181.730211 56.5224339,179.531253 C63.7293878,176.232817 73.3055533,173.651499 83.0828851,173.651499 C89.3665364,173.651499 107.032528,173.651499 136.080861,173.651499 C136.803781,173.651499 137.904023,173.651499 139.381587,173.651499 C140.848712,173.50955 141.91677,173.423034 142.585763,173.391951 C150.383424,173.029656 154.282254,175.07609 154.282254,179.531253 C154.282254,184.559756 149.315365,187.429432 139.381587,188.140282 C113.300554,191.235911 100.396187,193.771839 100.668487,195.748068 C101.076935,198.712412 127.838932,200.3543 141.064524,200.3543 C149.881585,200.3543 157.844512,197.89905 164.953306,192.988549 L179.666931,183.060633 C190.760389,173.571405 198.264835,171.295466 202.180269,176.232817 C206.095704,181.170169 204.137987,186.755413 196.307118,192.988549 C181.424604,208.805784 167.416316,218.565448 154.282254,222.26754 C134.581161,227.820679 102.341072,221.664033 92.4328584,222.26754 C82.5246446,222.871048 80.2250017,224.697883 77.0451564,226.972039 C73.8653112,229.246194 73.8653112,235.698796 71.7018186,235.698796 Z" id="Path-8" stroke-width="8"></path>
            </g>
        </g>
    </g>
</svg>