<?xml version="1.0" encoding="utf-8"?>
<!-- Generator: Adobe Illustrator 24.2.3, SVG Export Plug-In . SVG Version: 6.00 Build 0)  -->
<svg version="1.1" id="Layer_1" xmlns="http://www.w3.org/2000/svg" xmlns:xlink="http://www.w3.org/1999/xlink" x="0px" y="0px"
	 viewBox="0 0 400 93" style="enable-background:new 0 0 400 93;" xml:space="preserve">
<style type="text/css">
	.st0{fill:#3D557A;}
	.st1{fill:#172940;}
	.st2{fill:#7D1D1E;}
</style>
<g>
	<path class="st0" d="M1500 4467 c0 -30 4 -35 50 -54 l50 -21 0 -826 0 -826 530 0 530 0 0 50 0 50 -425 0 -425 0 0 395 0 395 341 0 340 0 -3 53 -3 52 -337 3 -338 2 0 330 0 330 425 0 425 0 0 50 0 50 -580 0 -580 0 0 -33z"/>
	<path class="st0" d="M45.9,59.93H27.22V31.24l-1.68-0.71v-1.42H45.9v2.05H31.15v11.27h11.72v2.05H31.15v13.41H45.9V59.93z
		 M28.47,58.68h1.44V30.36h-1.56l0.13,0.05V58.68z"/>
</g>
<g>
	<path class="st0" d="M52.41,29.74h4.37l8.74,25.03l9.07-25.03h2.65v29.57h-2.65V32.64l-9.62,26.67h-0.38l-9.58-26.96v26.96h-0.92
		V30.83l-1.68-0.71V29.74z"/>
	<path class="st0" d="M77.86,59.93h-3.9V36.21l-8.55,23.72h-1.26l-8.51-23.96v23.96h-2.17V31.24l-1.68-0.71v-1.42h2.6v-0.4l0.14,0.4
		h2.69l8.3,23.79l8.62-23.79h1.04l0.02-0.05v0.05h2.65V59.93z M75.21,58.68h1.4V30.36h-1.4V58.68z M54.97,30.36l9.81,27.62l0.6-1.68
		l-9.05-25.94H54.97z"/>
</g>
<g>
	<path class="st0" d="M85.13,29.74h10.96c1.74,0,3.18,0.34,4.35,1.03c1.16,0.69,2.04,1.55,2.63,2.58c0.59,1.04,0.88,2.15,0.88,3.34
		c0,1.19-0.29,2.3-0.88,3.34c-0.59,1.04-1.46,1.9-2.63,2.58s-2.61,1.03-4.35,1.03H89.5v15.67h-2.65V30.83l-1.72-0.71V29.74z
		 M89.5,30.54v12.31h5.42c1.37,0,2.51-0.3,3.42-0.9c0.91-0.6,1.6-1.36,2.06-2.29c0.46-0.92,0.69-1.91,0.69-2.96
		c0-1.05-0.23-2.04-0.69-2.96c-0.46-0.92-1.15-1.69-2.06-2.29c-0.91-0.6-2.05-0.9-3.42-0.9H89.5z"/>
	<path class="st0" d="M90.12,59.93h-3.9V31.25l-1.72-0.71v-1.42h11.59c1.84,0,3.41,0.38,4.66,1.12c1.25,0.74,2.21,1.69,2.85,2.81
		c0.64,1.13,0.96,2.35,0.96,3.65c0,1.3-0.32,2.52-0.96,3.65c-0.64,1.13-1.6,2.07-2.85,2.81c-1.25,0.74-2.82,1.12-4.66,1.12h-5.97
		V59.93z M87.47,58.68h1.4V30.36h-1.52l0.12,0.05V58.68z M97.99,30.53c0.24,0.11,0.47,0.24,0.69,0.39c1,0.66,1.76,1.51,2.27,2.53
		c0.5,1.01,0.76,2.1,0.76,3.24s-0.26,2.23-0.76,3.24c-0.51,1.02-1.27,1.87-2.27,2.53c-0.22,0.14-0.45,0.27-0.69,0.39
		c0.8-0.15,1.51-0.41,2.13-0.77c1.06-0.63,1.87-1.42,2.4-2.35c0.53-0.94,0.8-1.95,0.8-3.03c0-1.08-0.27-2.09-0.8-3.03
		c-0.53-0.93-1.34-1.73-2.4-2.35C99.51,30.94,98.8,30.69,97.99,30.53z M90.12,42.22h4.79c1.24,0,2.28-0.27,3.08-0.8
		c0.81-0.54,1.43-1.23,1.84-2.05c0.42-0.83,0.63-1.74,0.63-2.68c0-0.95-0.21-1.85-0.63-2.68c-0.41-0.82-1.03-1.51-1.84-2.05
		c-0.8-0.53-1.84-0.8-3.08-0.8h-4.79V42.22z"/>
</g>
<g>
	<path class="st0" d="M110.37,29.74h4.37v28.77h15.04v0.8h-17.68V30.83l-1.72-0.71V29.74z"/>
	<path class="st0" d="M130.4,59.93h-18.93V31.25l-1.72-0.71v-1.42h5.62v28.77h15.04V59.93z M112.72,58.68h1.4V30.36h-1.52l0.12,0.05
		V58.68z"/>
</g>
<g>
	<path class="st0" d="M146.32,29.06c2.18,0,4.1,0.44,5.75,1.32c1.65,0.88,3.04,2.04,4.16,3.49c1.12,1.44,1.97,3.09,2.54,4.94
		s0.86,3.74,0.86,5.67c0,1.93-0.29,3.82-0.86,5.67c-0.57,1.85-1.42,3.5-2.54,4.96c-1.12,1.46-2.51,2.63-4.16,3.51
		c-1.65,0.88-3.57,1.32-5.75,1.32c-2.16,0-4.07-0.44-5.73-1.32c-1.67-0.88-3.06-2.05-4.18-3.51c-1.12-1.46-1.97-3.11-2.54-4.96
		c-0.57-1.85-0.86-3.74-0.86-5.67c0-1.93,0.29-3.82,0.86-5.67c0.57-1.85,1.42-3.49,2.54-4.94c1.12-1.44,2.51-2.6,4.18-3.49
		C142.25,29.51,144.17,29.06,146.32,29.06z M146.32,59.39c1.74,0,3.26-0.43,4.58-1.28s2.42-1.98,3.3-3.38c0.88-1.4,1.54-3,1.97-4.79
		c0.43-1.79,0.65-3.61,0.65-5.46c0-1.85-0.22-3.67-0.65-5.46c-0.43-1.79-1.09-3.38-1.97-4.77c-0.88-1.39-1.98-2.51-3.3-3.36
		c-1.32-0.85-2.84-1.28-4.58-1.28c-1.74,0-3.26,0.43-4.56,1.28c-1.3,0.85-2.39,1.97-3.28,3.36c-0.88,1.39-1.54,2.98-1.97,4.77
		c-0.43,1.79-0.65,3.61-0.65,5.46c0,1.85,0.22,3.67,0.65,5.46c0.43,1.79,1.09,3.39,1.97,4.79c0.88,1.4,1.97,2.53,3.28,3.38
		S144.59,59.39,146.32,59.39z"/>
	<path class="st0" d="M146.32,60.56c-2.25,0-4.28-0.47-6.03-1.4c-1.74-0.92-3.21-2.16-4.38-3.68c-1.16-1.51-2.05-3.24-2.64-5.15
		c-0.59-1.9-0.89-3.87-0.89-5.86s0.3-3.96,0.89-5.86c0.59-1.91,1.48-3.64,2.64-5.13c1.17-1.51,2.64-2.74,4.38-3.65
		c1.75-0.93,3.78-1.4,6.03-1.4c2.28,0,4.31,0.47,6.05,1.4c1.72,0.92,3.19,2.15,4.36,3.65c1.16,1.49,2.05,3.22,2.64,5.13
		c0.59,1.9,0.89,3.87,0.89,5.86s-0.3,3.96-0.89,5.86c-0.59,1.91-1.48,3.64-2.64,5.15c-1.17,1.52-2.63,2.76-4.36,3.68
		C150.64,60.09,148.6,60.56,146.32,60.56z M146.32,30.24c-1.6,0-3.02,0.4-4.21,1.18c-1.22,0.8-2.26,1.87-3.09,3.17
		c-0.84,1.32-1.48,2.86-1.89,4.58c-0.42,1.73-0.63,3.52-0.63,5.31c0,1.79,0.21,3.58,0.63,5.31c0.42,1.72,1.05,3.27,1.9,4.6
		c0.83,1.32,1.87,2.39,3.09,3.19c1.19,0.78,2.61,1.18,4.21,1.18c1.6,0,3.03-0.4,4.24-1.18c1.23-0.8,2.28-1.87,3.11-3.19
		c0.84-1.33,1.48-2.88,1.9-4.6c0.42-1.74,0.63-3.52,0.63-5.31c0-1.79-0.21-3.57-0.63-5.31c-0.42-1.72-1.05-3.26-1.89-4.58
		c-0.83-1.3-1.88-2.37-3.11-3.17C149.35,30.63,147.93,30.24,146.32,30.24z M140.08,31.4c-1.24,0.77-2.3,1.73-3.18,2.86
		c-1.07,1.38-1.89,2.97-2.44,4.74c-0.55,1.78-0.83,3.63-0.83,5.48c0,1.86,0.28,3.71,0.83,5.48c0.55,1.77,1.37,3.37,2.44,4.76
		c0.88,1.14,1.94,2.11,3.18,2.88c-0.81-0.73-1.52-1.58-2.13-2.54c-0.91-1.45-1.61-3.12-2.05-4.97c-0.44-1.83-0.67-3.71-0.67-5.61
		c0-1.89,0.22-3.78,0.67-5.61c0.45-1.85,1.14-3.52,2.05-4.96C138.57,32.96,139.28,32.12,140.08,31.4z M152.64,31.44
		c0.79,0.71,1.49,1.54,2.09,2.48c0.91,1.44,1.6,3.1,2.05,4.96c0.44,1.84,0.67,3.72,0.67,5.61c0,1.89-0.23,3.77-0.67,5.61
		c-0.45,1.85-1.14,3.53-2.05,4.97c-0.6,0.95-1.3,1.79-2.1,2.5c1.2-0.77,2.24-1.72,3.11-2.84c1.07-1.39,1.89-2.99,2.44-4.76
		c0.55-1.78,0.83-3.62,0.83-5.48c0-1.86-0.28-3.71-0.83-5.48c-0.55-1.77-1.37-3.36-2.44-4.74C154.88,33.15,153.84,32.2,152.64,31.44
		z"/>
</g>
<g>
	<path class="st0" d="M162.87,29.99v-0.25h4.41l8.36,14.36l8.27-14.36h0.84l-8.74,15.29v14.28h-2.56V45.49l-8.65-14.45L162.87,29.99
		z"/>
	<path class="st0" d="M176.64,59.93h-3.81V45.66l-8.48-14.15l-2.11-1.15v-1.25h5.39l8,13.74l7.92-13.74h2.28l-9.19,16.08V59.93z
		 M174.08,58.68h1.31V44.92l-8.47-14.56h-2.06l0.38,0.21l8.83,14.74V58.68z"/>
</g>
<g>
	<path class="st0" d="M190.63,30.12v-0.38h19.11v0.8H195v12.52h11.72v0.8H195v14.66h14.74v0.8h-17.43V30.83L190.63,30.12z"/>
	<path class="st0" d="M210.37,59.93h-18.68V31.24l-1.68-0.71v-1.42h20.36v2.05h-14.74v11.27h11.72v2.05h-11.72v13.41h14.74V59.93z
		 M192.94,58.68h1.44V30.36h-1.56l0.13,0.05V58.68z"/>
</g>
<g>
	<path class="st1" d="M216.88,30.12v-0.38h19.11v0.8h-14.74v12.52h11.72v0.8h-11.72v14.66h14.74v0.8h-17.43V30.83L216.88,30.12z"/>
	<path class="st1" d="M236.62,59.93h-18.68V31.24l-1.68-0.71v-1.42h20.36v2.05h-14.74v11.27h11.72v2.05h-11.72v13.41h14.74V59.93z
		 M219.19,58.68h1.44V30.36h-1.56l0.13,0.05V58.68z"/>
</g>
<g>
	<path class="st1" d="M243.13,32.26v-2.52h21.38l-18.48,28.77h17.51l-0.04,0.8h-20.29v-1.05l17.72-27.72h-16.76l-0.67,1.72H243.13z"
		/>
	<path class="st1" d="M264.09,59.93h-21.5v-1.86l17.21-26.91h-15.19l-0.67,1.72h-1.43v-3.77h23.15l-18.48,28.77h17.03L264.09,59.93z
		 M243.84,58.68h1.34l18.19-28.32h-1.57l-17.95,28.08V58.68z"/>
</g>
<g>
	<path class="st2" d="M290.42,53.38V29.7h0.92v29.57h-0.38l-17.89-28.1v28.1h-0.92V30.79l-1.68-0.71V29.7h4.91L290.42,53.38z"/>
	<path class="st2" d="M291.97,59.89h-1.35L273.7,33.31v26.58h-2.17V31.2l-1.68-0.71v-1.42h2.6v-0.05l0.03,0.05h3.25l14.07,22.16
		V29.07h2.17V59.89z M273.28,30.32l17.44,27.39v-2.69l-15.68-24.7H273.28z"/>
</g>
<g>
	<path class="st2" d="M312.39,29.06c2.18,0,4.1,0.44,5.75,1.32c1.65,0.88,3.04,2.04,4.16,3.49c1.12,1.44,1.97,3.09,2.54,4.94
		s0.86,3.74,0.86,5.67c0,1.93-0.29,3.82-0.86,5.67c-0.57,1.85-1.42,3.5-2.54,4.96c-1.12,1.46-2.51,2.63-4.16,3.51
		c-1.65,0.88-3.57,1.32-5.75,1.32c-2.16,0-4.07-0.44-5.73-1.32c-1.67-0.88-3.06-2.05-4.18-3.51c-1.12-1.46-1.97-3.11-2.54-4.96
		c-0.57-1.85-0.86-3.74-0.86-5.67c0-1.93,0.29-3.82,0.86-5.67c0.57-1.85,1.42-3.49,2.54-4.94c1.12-1.44,2.51-2.6,4.18-3.49
		C308.32,29.51,310.23,29.06,312.39,29.06z M312.39,59.39c1.74,0,3.26-0.43,4.58-1.28s2.42-1.98,3.3-3.38c0.88-1.4,1.54-3,1.97-4.79
		c0.43-1.79,0.65-3.61,0.65-5.46c0-1.85-0.22-3.67-0.65-5.46c-0.43-1.79-1.09-3.38-1.97-4.77c-0.88-1.39-1.98-2.51-3.3-3.36
		c-1.32-0.85-2.84-1.28-4.58-1.28c-1.74,0-3.26,0.43-4.56,1.28c-1.3,0.85-2.39,1.97-3.28,3.36c-0.88,1.39-1.54,2.98-1.97,4.77
		c-0.43,1.79-0.65,3.61-0.65,5.46c0,1.85,0.22,3.67,0.65,5.46c0.43,1.79,1.09,3.39,1.97,4.79c0.88,1.4,1.97,2.53,3.28,3.38
		S310.65,59.39,312.39,59.39z"/>
	<path class="st2" d="M312.39,60.56c-2.25,0-4.28-0.47-6.03-1.4c-1.74-0.92-3.21-2.16-4.38-3.68c-1.16-1.51-2.05-3.24-2.64-5.15
		c-0.59-1.9-0.89-3.87-0.89-5.86s0.3-3.96,0.89-5.86c0.59-1.91,1.48-3.64,2.64-5.13c1.17-1.51,2.64-2.74,4.38-3.65
		c1.75-0.93,3.78-1.4,6.03-1.4c2.28,0,4.31,0.47,6.05,1.4c1.72,0.92,3.19,2.15,4.36,3.65c1.16,1.49,2.05,3.22,2.64,5.13
		c0.59,1.9,0.89,3.87,0.89,5.86s-0.3,3.96-0.89,5.86c-0.59,1.91-1.48,3.64-2.64,5.15c-1.17,1.52-2.63,2.76-4.36,3.68
		C316.7,60.09,314.67,60.56,312.39,60.56z M312.39,30.24c-1.6,0-3.02,0.4-4.21,1.18c-1.22,0.8-2.26,1.87-3.09,3.17
		c-0.84,1.32-1.48,2.86-1.89,4.58c-0.42,1.73-0.63,3.52-0.63,5.31c0,1.79,0.21,3.58,0.63,5.31c0.42,1.72,1.05,3.27,1.9,4.6
		c0.83,1.32,1.87,2.39,3.09,3.19c1.19,0.78,2.61,1.18,4.21,1.18c1.6,0,3.03-0.4,4.24-1.18c1.23-0.8,2.28-1.87,3.11-3.19
		c0.84-1.33,1.48-2.88,1.9-4.6c0.42-1.74,0.63-3.52,0.63-5.31c0-1.79-0.21-3.57-0.63-5.31c-0.42-1.72-1.05-3.26-1.89-4.58
		c-0.83-1.3-1.88-2.37-3.11-3.17C315.42,30.63,313.99,30.24,312.39,30.24z M306.15,31.4c-1.24,0.77-2.3,1.73-3.18,2.86
		c-1.07,1.38-1.89,2.97-2.44,4.74c-0.55,1.78-0.83,3.63-0.83,5.48c0,1.86,0.28,3.71,0.83,5.48c0.55,1.77,1.37,3.37,2.44,4.76
		c0.88,1.14,1.94,2.11,3.18,2.88c-0.81-0.73-1.52-1.58-2.13-2.54c-0.91-1.45-1.61-3.12-2.05-4.97c-0.44-1.83-0.67-3.71-0.67-5.61
		c0-1.89,0.22-3.78,0.67-5.61c0.45-1.85,1.14-3.52,2.05-4.96C304.64,32.96,305.35,32.12,306.15,31.4z M318.7,31.44
		c0.79,0.71,1.49,1.54,2.09,2.48c0.91,1.44,1.6,3.1,2.05,4.96c0.44,1.84,0.67,3.72,0.67,5.61c0,1.89-0.23,3.77-0.67,5.61
		c-0.45,1.85-1.14,3.53-2.05,4.97c-0.6,0.95-1.3,1.79-2.1,2.5c1.2-0.77,2.24-1.72,3.11-2.84c1.07-1.39,1.89-2.99,2.44-4.76
		c0.55-1.78,0.83-3.62,0.83-5.48c0-1.86-0.28-3.71-0.83-5.48c-0.55-1.77-1.37-3.36-2.44-4.74C320.94,33.15,319.9,32.2,318.7,31.44z"
		/>
</g>
<g>
	<path class="st2" d="M329.02,29.74h4.16l10.25,26.63l6.05-15.62l-4.33-11h2.94l10.33,26.42l10.21-26.42h0.92l-11.47,29.57h-1.39
		l-6.8-17.39l-6.72,17.39h-1.39l-11.13-28.48l-1.64-0.84V29.74z"/>
	<path class="st2" d="M358.51,59.93h-2.24l-6.37-16.29l-6.29,16.29h-2.24l-11.2-28.65l-1.77-0.91v-1.26h5.21l9.82,25.52l5.38-13.89
		l-4.57-11.63h4.28l9.9,25.32l9.78-25.32h2.27L358.51,59.93z M357.13,58.68h0.53l0.54-1.39l-10.53-26.93h-1.6l4.08,10.38l-0.02,0.05
		L357.13,58.68z M342.22,58.68h0.53l0.45-1.17l-10.45-27.15h-1.63l0.04,0.02L342.22,58.68z"/>
</g>
</svg>
