<?xml version="1.0" standalone="no"?>
<!DOCTYPE svg PUBLIC "-//W3C//DTD SVG 20010904//EN"
 "http://www.w3.org/TR/2001/REC-SVG-20010904/DTD/svg10.dtd">
<svg version="1.0" xmlns="http://www.w3.org/2000/svg"
 width="1757.000000pt" height="322.000000pt" viewBox="100 300 1757.000000 122.000000"
 preserveAspectRatio="xMidYMid meet">
<style>
  .st0{fill:#3D557A;}
  .st1{fill:#172940;}
  .st2{fill:#7D1D1E;}
</style>
<g transform="translate(0.000000,722.000000) scale(0.100000,-0.100000)"
fill="#000000" stroke="none">
<path class="st0" d="M1500 4467 c0 -30 4 -35 50 -54 l50 -21 0 -826 0 -826 530 0 530 0 0
50 0 50 -425 0 -425 0 0 395 0 395 341 0 340 0 -3 53 -3 52 -337 3 -338 2 0
330 0 330 425 0 425 0 0 50 0 50 -580 0 -580 0 0 -33z"/>
<path class="st2" d="M12410 4471 c0 -25 6 -31 50 -50 l50 -22 0 -830 0 -830 53 3 52 3 5
773 5 774 490 -774 c471 -742 491 -773 520 -773 l30 0 3 878 2 877 -55 0 -55
0 -2 -645 -3 -644 -406 642 -406 642 -166 3 -167 2 0 -29z"/>
<path class="st0" d="M6872 4106 c-202 -51 -366 -225 -434 -462 -31 -106 -33 -331 -4 -439
82 -308 303 -495 586 -495 160 0 283 52 401 170 204 204 265 548 149 848 -67
173 -197 306 -355 363 -76 27 -263 35 -343 15z m292 -99 c70 -33 150 -112 193
-192 117 -222 120 -552 7 -781 -60 -122 -151 -201 -263 -230 -216 -55 -406 95
-482 381 -32 116 -32 335 -1 459 50 200 172 350 316 387 60 16 168 4 230 -24z"/>
<path class="st2" d="M14391 4094 c-88 -23 -171 -74 -247 -149 -150 -148 -228 -405 -194
-636 40 -279 180 -474 400 -558 57 -22 81 -25 195 -25 113 0 138 3 190 24 164
64 280 182 352 360 77 192 71 464 -15 652 -77 168 -217 291 -379 333 -72 19
-230 18 -302 -1z m306 -80 c116 -56 215 -197 259 -369 28 -106 26 -361 -4
-470 -74 -271 -263 -426 -472 -385 -79 15 -132 44 -195 107 -73 73 -129 188
-157 320 -27 130 -21 340 12 453 57 196 175 334 317 370 66 16 178 5 240 -26z"/>
<path class="st0" d="M2890 4057 c0 -29 5 -35 35 -46 l35 -12 0 -630 0 -629 50 0 50 0 2
513 3 512 180 -510 181 -510 31 -3 c26 -3 32 1 40 25 93 267 348 970 355 977
4 6 8 -218 8 -497 l0 -507 85 0 85 0 0 675 0 675 -83 0 -83 0 -184 -510 c-101
-280 -187 -510 -190 -510 -3 0 -85 228 -182 508 l-176 507 -121 3 -121 3 0
-34z"/>
<path class="st0" d="M4320 4058 c0 -30 4 -36 35 -47 l35 -12 0 -630 0 -629 90 0 90 0 0
340 0 340 123 0 c175 1 257 13 328 51 113 61 174 162 173 289 -1 132 -68 236
-192 297 l-57 28 -312 3 -313 3 0 -33z m541 -73 c93 -33 149 -117 149 -225 0
-77 -22 -130 -71 -177 -57 -53 -93 -63 -239 -63 l-130 0 0 240 0 240 124 0
c86 0 137 -5 167 -15z"/>
<path class="st0" d="M5420 4057 c0 -29 5 -35 35 -46 l35 -12 0 -630 0 -629 420 0 420 0 0
45 0 45 -330 0 -330 0 0 630 0 630 -125 0 -125 0 0 -33z"/>
<path class="st0" d="M7710 4063 c0 -23 9 -33 48 -54 46 -26 57 -41 230 -333 l182 -305 0
-316 0 -315 85 0 85 0 0 318 0 318 200 352 c110 194 200 355 200 358 0 3 -23
4 -51 2 l-51 -3 -166 -292 c-92 -161 -169 -292 -172 -293 -3 0 -82 133 -175
295 l-170 294 -122 1 -123 0 0 -27z"/>
<path class="st0" d="M8920 4059 c0 -26 5 -33 40 -46 l40 -16 0 -629 0 -628 410 0 410 0 0
45 0 45 -325 0 -325 0 2 293 3 292 258 3 257 2 0 45 0 45 -260 0 -260 0 0 245
0 245 325 0 325 0 0 45 0 45 -450 0 -450 0 0 -31z"/>
<path class="st1" d="M10070 4057 c0 -29 5 -35 35 -46 l35 -12 0 -630 0 -629 415 0 415 0
0 45 0 45 -325 0 -325 0 0 290 0 290 255 0 255 0 0 50 0 50 -255 0 -255 0 0
245 0 245 325 0 325 0 0 45 0 45 -450 0 -450 0 0 -33z"/>
<path class="st1" d="M11220 4005 l0 -85 31 0 c26 0 33 5 46 40 l16 40 324 0 c177 0 323
-3 323 -7 0 -3 -166 -268 -370 -588 -335 -526 -370 -586 -370 -623 l0 -42 475
0 475 0 0 45 0 45 -370 2 -369 3 377 590 c208 325 388 607 401 628 l23 37
-506 0 -506 0 0 -85z"/>
<path class="st2" d="M15250 4060 c0 -13 13 -26 38 -39 l37 -19 208 -533 c114 -294 223
-576 243 -627 l37 -93 46 3 46 3 135 352 c74 194 138 353 141 353 3 0 68 -160
144 -355 l138 -355 46 0 46 0 78 203 c42 111 157 410 256 665 l179 462 -42 0
-42 0 -214 -555 c-117 -306 -217 -552 -220 -548 -5 6 -293 740 -426 1086 -5
14 -21 17 -90 17 -46 0 -84 -2 -84 -5 0 -3 43 -115 96 -250 l95 -244 -116
-303 c-64 -167 -120 -306 -123 -310 -4 -4 -103 245 -221 553 l-214 559 -109 0
c-101 0 -108 -1 -108 -20z"/>
</g>
</svg>
